<svg width="35" height="36" viewBox="0 0 35 36" fill="none" xmlns="http://www.w3.org/2000/svg">
    <circle cx="17.5" cy="17.7274" r="16" fill="#262626" stroke="#4E4E4E" stroke-width="3"/>
    <path d="M8.9 13.9274C9.96 13.1774 11.175 12.8024 12.545 12.8024C13.655 12.8024 14.575 13.0624 15.305 13.5824C16.035 14.1024 16.4 14.8974 16.4 15.9674C16.4 16.3774 16.325 16.7624 16.175 17.1224C16.025 17.4824 15.805 17.8074 15.515 18.0974C15.225 18.3874 14.945 18.6374 14.675 18.8474C14.405 19.0474 14.08 19.2624 13.7 19.4924C12.64 20.1324 12.035 20.5274 11.885 20.6774C11.795 20.7674 11.75 20.8424 11.75 20.9024H16.475V23.2274H8.57V22.0124C8.57 21.5624 8.64 21.1424 8.78 20.7524C8.92 20.3624 9.07 20.0474 9.23 19.8074C9.39 19.5574 9.645 19.2924 9.995 19.0124C10.345 18.7224 10.605 18.5224 10.775 18.4124C10.955 18.3024 11.255 18.1224 11.675 17.8724C11.775 17.8124 11.85 17.7674 11.9 17.7374C11.98 17.6874 12.15 17.5924 12.41 17.4524C12.68 17.3024 12.855 17.2024 12.935 17.1524C13.015 17.0924 13.125 17.0024 13.265 16.8824C13.415 16.7624 13.51 16.6424 13.55 16.5224C13.6 16.4024 13.625 16.2674 13.625 16.1174C13.625 15.8174 13.5 15.5924 13.25 15.4424C13.01 15.2824 12.69 15.2024 12.29 15.2024C11.11 15.2024 9.98 15.6274 8.9 16.4774V13.9274ZM18.116 12.7274H22.301C24.111 12.7274 25.476 13.2024 26.396 14.1524C27.326 15.1024 27.791 16.3774 27.791 17.9774C27.791 19.5774 27.326 20.8524 26.396 21.8024C25.476 22.7524 24.111 23.2274 22.301 23.2274H18.116V12.7274ZM22.301 20.8274C24.061 20.8274 24.941 19.8774 24.941 17.9774C24.941 16.0774 24.061 15.1274 22.301 15.1274H20.891V20.8274H22.301Z"
          fill="#9A9A9A"/>
</svg>
