<svg xmlns="http://www.w3.org/2000/svg" width="44" height="44" fill="none"><circle cx="22" cy="22" r="22" fill="#333"/><g fill="#7D7D7D" clip-path="url(#a)"><path d="M23.2 11v2.63c0 .77-.02 1.55.01 2.32.03.9.66 1.49 1.57 1.5H30V30.4c0 1.37-.73 2.3-1.97 2.55-.2.03-.4.04-.6.04H15.57c-1.56 0-2.57-.97-2.57-2.51V13.52c0-1.54 1-2.52 2.56-2.52h7.63Zm-1.83 9.88h4.66c.5 0 .8-.26.78-.66-.01-.38-.3-.62-.78-.62h-9.36c-.46 0-.76.28-.74.66.01.38.3.62.78.62h4.66Zm.04 2.15h-4.7c-.5 0-.8.27-.78.67.01.39.3.62.82.62h9.32c.46 0 .76-.28.74-.66-.01-.38-.3-.62-.78-.62H21.4Zm-3.26 4.73h1.53c.44-.02.7-.27.7-.65s-.27-.64-.71-.64h-3c-.45 0-.73.26-.74.62-.01.39.28.66.74.66h1.48Z"/><path d="M24.61 11.26c1.73 1.6 3.45 3.15 5.1 4.78l-.08.12H24.9c-.24 0-.4-.06-.4-.33l.02-4.37c0-.04.03-.08.1-.2Z"/></g><defs><clipPath id="a"><path fill="#fff" d="M13 11h17v22H13z"/></clipPath></defs></svg>
