<svg width="74" height="24" fill="none" xmlns="http://www.w3.org/2000/svg">
    <g fill="#fff">
        <path d="M51.28.11h-4.15c-.7 0-1.38.57-1.5 1.28l-2.68 14.99a.96.96 0 0 1-.9.76h-8.97c-.42 0-.7-.34-.63-.76l2.67-14.99c.13-.7-.34-1.28-1.05-1.28h-4.08c-.7 0-1.38.57-1.51 1.28l-2.82 15.8c-.59 3.31 1.62 6 4.94 6l11.14.03h.67a7.5 7.5 0 0 0 7.1-6l2.83-15.83c.13-.7-.35-1.28-1.06-1.28ZM60.72.15H57.1c-.7 0-1.39.57-1.51 1.27l-3.65 20.49c-.13.7.34 1.28 1.05 1.28h4.29c.7 0 1.38-.57 1.5-1.28l3.66-20.49c.13-.7-.35-1.27-1.05-1.27h-.67ZM71.26.15h-3.62c-.7 0-1.38.57-1.5 1.27l-3.66 20.49c-.13.7.35 1.28 1.06 1.28h4.28c.7 0 1.38-.57 1.51-1.28l3.65-20.49c.13-.7-.35-1.27-1.05-1.27h-.67ZM1.7 23.04H6c.71 0 1.39-.57 1.52-1.27l1.28-7.23a.32.32 0 0 1 .3-.26h10.68c.43 0 .83-.34.91-.77l.71-3.98c.08-.43-.2-.77-.63-.77H10.08a.2.2 0 0 1-.2-.25l.41-2.37a.32.32 0 0 1 .3-.26h13.28c.43 0 .84-.34.91-.76l.77-4.35c.08-.43-.2-.77-.63-.77H5.82C5.1 0 4.43.57 4.3 1.28L.65 21.77c-.12.7.35 1.27 1.06 1.27Z"/>
    </g>
</svg>
