<svg width="112" height="36" viewBox="0 0 112 36" fill="none" xmlns="http://www.w3.org/2000/svg">
    <path d="M78.3549 0H77.3406H73.0203H72.0059C70.9232 0 69.8878 0.889826 69.6933 1.99126L65.6042 25.3383C65.4886 26.0003 64.8684 26.532 64.2167 26.532H50.5042C49.8525 26.532 49.4215 25.9949 49.5371 25.3383L53.6262 1.99126C53.8206 0.889826 53.0953 0 52.0126 0H50.9877H46.783H45.7687C44.686 0 43.6506 0.889826 43.4561 1.99126L39.1463 26.6025C38.2423 31.7625 41.5972 35.9891 46.6796 36H63.7542C63.7647 36 63.77 36 63.7805 36H64.7738C69.872 36.0108 74.7494 31.8221 75.6534 26.646L79.9685 1.99126C80.1629 0.889826 79.4376 0 78.3549 0Z" fill="#8B8B8B"/>
    <path d="M93.1925 0H88.4248H87.356C86.2153 0 85.1244 0.897959 84.9195 1.99728L79.0332 34.0027C78.8283 35.1075 79.5925 36 80.7332 36H81.802H86.5752H87.644C88.7847 36 89.8756 35.1075 90.0805 34.0027L95.9668 1.99728C96.1717 0.892517 95.4075 0 94.2668 0H93.1925Z" fill="#8B8B8B"/>
    <path d="M109.362 0H104.873H103.867C102.793 0 101.766 0.897959 101.573 1.99728L96.0313 34.0027C95.8384 35.1075 96.5578 36 97.6318 36H98.638H103.127H104.133C105.207 36 106.234 35.1075 106.427 34.0027L111.969 1.99728C112.162 0.892517 111.442 0 110.368 0H109.362Z" fill="#8B8B8B"/>
    <path d="M1.68151 36H7.3492H8.38604C9.49272 36 10.551 35.1022 10.7498 34.003L12.7644 22.7122C12.802 22.4891 13.0169 22.3096 13.2372 22.3096H28.9026H29.9394C30.6055 22.3096 31.2395 21.7709 31.3577 21.1125L32.4697 14.8875C32.5879 14.2237 32.142 13.6904 31.4812 13.6904H30.4444H14.779C14.5587 13.6904 14.4083 13.5109 14.4513 13.2932L15.1121 9.58767C15.1497 9.37001 15.3646 9.19045 15.5848 9.19045H35.317H36.3538C37.02 9.19045 37.6539 8.65175 37.7721 7.99335L38.9808 1.1971C39.099 0.538694 38.6585 0 37.9923 0H36.9555H9.14352H8.10668C7.00001 0 5.94168 0.892382 5.74291 1.99698L0.0322339 34.003C-0.166538 35.1076 0.574828 36 1.68151 36Z" fill="#8B8B8B"/>
</svg>
