<svg width="130" height="46" viewBox="0 0 130 46" fill="none" xmlns="http://www.w3.org/2000/svg">
    <path d="M99.0292 0.0214844H97.6883H88.4695H87.1286H77.3231H75.9822H73.9052H72.5643C65.8414 0.0214844 59.4247 5.37244 58.2295 11.9756L54.2432 34.0237C53.048 40.6269 57.5299 45.9778 64.2527 45.9778H65.5937H70.327H71.6679H78.817H80.158H89.3768H90.7177C97.4405 45.9778 103.857 40.6269 105.052 34.0237L109.042 11.9756C110.234 5.37244 105.752 0.0214844 99.0292 0.0214844ZM91.4428 32.4548C91.2898 33.2993 90.4699 33.98 89.6136 33.98H82.3297H80.9887H73.8396H72.4987H69.7002C68.8403 33.98 68.2719 33.2957 68.4213 32.4548L71.8719 13.3807C72.025 12.5362 72.8448 11.8555 73.7011 11.8555H76.4996H77.8405H84.9896H86.3306H93.6145C94.4745 11.8555 95.0465 12.5398 94.8935 13.3807L91.4428 32.4548Z" fill="#ffffff"/>
    <path d="M113.087 33.5469H121.785C123.137 33.5469 124.161 34.7699 123.92 36.0986L122.59 43.4552C122.335 44.8603 120.973 45.9997 119.541 45.9997H110.89C109.458 45.9997 108.507 44.8603 108.759 43.4552L110.099 36.0403C110.362 34.5952 111.619 33.5469 113.087 33.5469Z" fill="#ffffff"/>
    <path d="M129.958 2.73389L125.651 26.5475C125.414 27.8579 124.27 28.8152 122.936 28.8152H114.093C112.697 28.8152 111.64 27.5521 111.888 26.1798L116.126 2.73389C116.377 1.32881 117.744 0.189453 119.176 0.189453H127.826C129.258 0.189453 130.209 1.32881 129.958 2.73389Z" fill="#ffffff"/>
    <path d="M51.8311 0H50.4902H19.8421H18.5012C11.7638 0 5.32887 5.36551 4.1337 11.9832L0.198396 33.751C-1.01499 40.3578 3.46324 45.7233 10.1897 45.7233L42.2042 45.7925C42.2078 45.7925 42.2151 45.7889 42.2187 45.7889L43.5451 45.7925C44.9771 45.7962 46.3472 44.6568 46.6022 43.2481L50.8363 19.8349C51.0914 18.4298 50.1367 17.2905 48.7084 17.2905H47.3674H28.529H27.1881C26.3318 17.2905 25.5119 17.9712 25.3589 18.8157L23.9268 26.7293C23.7738 27.5738 24.3459 28.2545 25.2058 28.2545H26.5467H35.0878C35.3757 28.2545 35.5652 28.4838 35.5141 28.7641L34.7089 33.2087C34.6579 33.489 34.3846 33.7183 34.1003 33.7183H15.7064C14.8501 33.7183 14.2781 33.0339 14.4275 32.1931L17.8636 13.1954C18.0166 12.3509 18.8365 11.6702 19.6927 11.6702H48.3804H49.7213C51.1497 11.6702 52.5161 10.5308 52.7712 9.12574L53.9627 2.54443C54.2142 1.13935 53.2631 0 51.8311 0Z" fill="#ffffff"/>
</svg>
