<svg width="102" height="36" viewBox="0 0 102 36" fill="none" xmlns="http://www.w3.org/2000/svg">
    <path d="M77.2107 0H76.1659H68.9824H67.9376H60.297H59.2522H57.6338H56.5889C51.3504 0 46.3504 4.19168 45.4191 9.36428L42.3129 26.6357C41.3816 31.8083 44.874 36 50.1125 36H51.1573H54.8456H55.8904H61.4611H62.506H69.6894H70.7343C75.9728 36 80.9728 31.8083 81.9041 26.6357L85.0131 9.36428C85.9415 4.19168 82.4492 0 77.2107 0ZM71.2993 25.4067C71.18 26.0683 70.5412 26.6015 69.874 26.6015H64.1982H63.1534H57.5827H56.5378H54.3572C53.6871 26.6015 53.2442 26.0654 53.3606 25.4067L56.0494 10.4649C56.1687 9.8034 56.8075 9.27018 57.4748 9.27018H59.6553H60.7002H66.2709H67.3158H72.9915C73.6616 9.27018 74.1074 9.80626 73.9881 10.4649L71.2993 25.4067Z" fill="#8B8B8B"/>
    <path d="M88.0778 26.2935H94.8395C95.8904 26.2935 96.6864 27.2468 96.4995 28.2824L95.4655 34.0168C95.2672 35.112 94.2078 36.0001 93.0945 36.0001H86.3696C85.2564 36.0001 84.517 35.112 84.7125 34.0168L85.7549 28.2371C85.9589 27.1106 86.9362 26.2935 88.0778 26.2935Z" fill="#8B8B8B"/>
    <path d="M101.132 2.04438L97.8086 21.1779C97.6259 22.2308 96.7431 23 95.7142 23H88.8913C87.8146 23 86.9993 21.9851 87.1905 20.8825L90.46 2.04438C90.654 0.915437 91.7082 0 92.813 0H99.4869C100.592 0 101.325 0.915437 101.132 2.04438Z" fill="#8B8B8B"/>
    <path d="M40.4734 0H39.4305H15.5945H14.5516C9.31173 0 4.30704 4.21812 3.37752 9.42066L0.316897 26.5335C-0.626795 31.7275 2.85608 35.9456 8.08748 35.9456L32.9862 36C32.9891 36 32.9947 35.9971 32.9976 35.9971L34.0291 36C35.1428 36.0029 36.2084 35.1071 36.4068 33.9997L39.6998 15.5933C39.8981 14.4887 39.1556 13.593 38.0448 13.593H37.0019H22.3506H21.3077C20.6417 13.593 20.0041 14.1281 19.8851 14.792L18.7713 21.0133C18.6523 21.6773 19.0972 22.2124 19.766 22.2124H20.8089H27.4516C27.6755 22.2124 27.8228 22.3927 27.7832 22.613L27.1569 26.1071C27.1172 26.3275 26.9047 26.5078 26.6836 26.5078H12.378C11.7121 26.5078 11.2671 25.9698 11.3833 25.3087L14.0557 10.3736C14.1747 9.7097 14.8124 9.17456 15.4783 9.17456H37.7897H38.8326C39.9435 9.17456 41.0062 8.27885 41.2046 7.17424L42.1313 2.00032C42.3268 0.895707 41.5871 0 40.4734 0Z" fill="#8B8B8B"/>
</svg>
