<svg xmlns="http://www.w3.org/2000/svg" width="219" height="109" fill="none"><path fill="#FCFCFC" d="M70.04 99.1c-4.02-8.68.98-18.87 10.18-21.56.99-.28 1.99-.54 3-.7 35.92-5.57 94.9-17.32 130.82-22.83 1.85-.28 4.25-.95 4.54 1.56.13 1.13-1.73 3.16-3.12 3.72-34.03 13.73-91.17 33.63-125.28 47.2-7.75 3.08-16.2.1-19.76-6.62-.13-.26-.26-.51-.38-.78Zm18.86-.46a7.42 7.42 0 0 0 1.77-10.5A7.53 7.53 0 0 0 77.5 95.2a7.52 7.52 0 0 0 11.4 3.43Z"/><path fill="#4CE57B" d="m9.7 72.51.31.13a2.88 2.88 0 0 1 1.54 3.93 88.72 88.72 0 0 0-8.28 30.26 1.62 1.62 0 0 1-3.23-.15 107.68 107.68 0 0 1 5.4-32.18A3.23 3.23 0 0 1 9.7 72.5ZM41.39 28.42l3.4 5.15a4.7 4.7 0 0 1-1.36 6.53 89.93 89.93 0 0 0-26.15 26.24 4.16 4.16 0 0 1-5.01 1.62l-.86-.34a3.06 3.06 0 0 1-1.67-4.1 108.3 108.3 0 0 1 26.4-35.8 3.5 3.5 0 0 1 5.25.7ZM82.23 8.73l1.9 12.44a4.52 4.52 0 0 1-3.86 5.16 88.8 88.8 0 0 0-25.32 7.39c-1.69.78-3.7.22-4.73-1.34l-4.44-6.73a4.72 4.72 0 0 1 1.29-6.5A108 108 0 0 1 76.28 5c2.7-.84 5.52.93 5.95 3.72ZM133.9 8.6l-5.63 18.91a4.65 4.65 0 0 1-6.01 3.05 89.65 89.65 0 0 0-29.77-5.06 2.86 2.86 0 0 1-2.83-2.42L87.26 7.3a5.1 5.1 0 0 1 4.27-5.8 109.4 109.4 0 0 1 38.67.9 4.9 4.9 0 0 1 3.7 6.2ZM179.2 34.39 162.23 50.6a5.44 5.44 0 0 1-7.55-.04 89.72 89.72 0 0 0-19.21-14.12 5.4 5.4 0 0 1-2.58-6.28l5.87-19.76a5.43 5.43 0 0 1 7.07-3.56A108.17 108.17 0 0 1 179 26.4a5.4 5.4 0 0 1 .19 8ZM199.85 50.47c-10.97 1.83-23.22 4.01-35.74 6.28.29-.78.76-1.5 1.4-2.1l17.23-16.49a5.75 5.75 0 0 1 8.35.4c3.19 3.76 6.11 7.74 8.76 11.91ZM206.02 78.07l-23.58 6.65c-2.84.8-5.8-.68-6.91-3.4l-.21-.53c11.95-4.43 23.47-8.75 33.57-12.7.34.82.66 1.65.97 2.49a5.72 5.72 0 0 1-3.84 7.49Z"/><path fill="#FCFCFC" d="M208.21 108.32h-21.78a5.06 5.06 0 0 1-5.03-4.42 88.5 88.5 0 0 0-1.4-8.16 5.06 5.06 0 0 1 3.58-5.96l24.54-6.92c2.83-.8 5.77.96 6.36 3.83.86 4.21 1.47 8.51 1.82 12.89a8.11 8.11 0 0 1-8.09 8.74Z"/></svg>
