<svg width="160" height="58" viewBox="0 0 160 58" fill="none" xmlns="http://www.w3.org/2000/svg">
    <g clip-path="url(#clip0_294_4275)">
        <path d="M133.163 27.9438C134.218 26.5116 131.927 26.6221 130.763 27.3198C129.38 28.1648 128.944 29.817 128.726 30.6989C128.399 32.0206 127.381 35.6207 126.835 38.7062C126.654 39.7712 126.507 40.9835 127.126 42.0853C127.562 42.8935 128.472 43.848 129.526 43.5912C131.017 43.224 132.8 39.1103 133.419 37.7875C133.855 36.9056 134.546 35.5102 135.128 34.2253C135.819 32.7194 135.784 31.1767 134.438 34.0411C132.911 37.3097 130.801 41.8643 130.11 41.7169C129.491 41.6064 129.928 39.6607 130 39.2197L131.527 31.727C131.855 30.1106 132.692 28.4953 133.164 27.8701V27.9438H133.163Z" fill="white"/>
        <path d="M32.0432 16.7047C32.4073 15.1987 32.5523 13.6928 31.4611 12.3711C34.2256 11.343 36.3714 10.7178 37.9351 10.3874C38.9167 10.1675 39.3173 9.83594 38.0447 9.24876C36.1534 8.36687 31.0616 8.55106 27.061 9.83594C23.388 11.0114 22.8789 14.2432 23.7875 15.0146C24.4061 15.566 25.2062 14.9777 28.1887 13.7286L28.5163 13.5812L22.952 35.9121C21.3152 42.4872 19.2059 46.8207 17.0236 49.1717C11.1682 55.5626 3.27546 47.9962 8.40375 39.9163C10.3316 36.8676 15.3503 35.3249 17.6422 34.3704C18.0782 34.1862 18.3693 33.9663 18.3693 33.7832C18.4058 33.4528 17.6422 32.7919 17.0236 32.6446C4.03906 29.1918 -4.18014 54.0947 15.8959 52.5151C22.0423 52.0373 25.971 41.8274 27.3167 36.2079L32.0432 16.7047Z" fill="#FF0752"/>
        <path d="M34.5601 43.6268C35.1422 43.4426 35.6878 43.0754 36.1604 42.4513C36.779 41.68 37.3246 40.5413 37.7971 39.2553C39.3974 38.9617 40.525 37.3821 41.2521 35.8025C41.6162 34.9943 41.9792 34.2598 42.1618 33.7463C43.1434 31.1754 42.2348 31.7257 41.2521 33.9305C41.0706 34.3346 40.8161 34.8849 40.5616 35.4732C40.161 36.3919 39.2159 37.7137 38.1247 38.2651C38.8152 36.0615 39.2889 33.5643 39.4339 31.6174C39.7249 27.2471 36.3784 26.2546 34.4517 28.0542V30.1115C34.9242 28.7161 35.6159 27.7606 36.1615 28.0184C37.4706 28.6056 36.271 34.0053 35.2883 37.899C34.9242 37.6054 34.6332 37.2381 34.4151 36.834V38.2663C34.5966 38.4862 34.8158 38.6704 35.0338 38.7809C34.8158 39.5891 34.5977 40.2868 34.3786 40.874L34.5601 43.6268ZM33.4689 42.746V43.9584C33.76 43.9651 34.2713 43.7664 34.5601 43.6279L34.3786 40.8729C34.0986 41.6855 33.8187 42.2604 33.5708 42.63C33.5519 42.659 33.5298 42.6847 33.5055 42.7092L33.4689 42.746ZM34.4151 38.2651V36.8329C33.4335 34.9597 33.7965 32.0584 34.4517 30.1115V28.0542C34.2702 28.2372 34.0156 28.5688 33.8696 28.7887C33.76 28.7887 33.6515 28.8255 33.542 28.8624V36.9066C33.76 37.4569 34.0876 37.8968 34.4151 38.2651ZM33.542 36.9055V28.8613C31.3596 29.78 29.6864 36.0972 29.5049 39.1091C29.3599 41.6063 31.3962 43.9204 33.4689 43.9573V42.7449C32.4508 44.1772 31.7226 42.6344 32.1232 40.0267C32.3047 38.6681 32.6323 37.0149 32.9964 35.3616C33.106 35.951 33.324 36.4288 33.542 36.9055Z" fill="#FF0752"/>
        <path d="M115.225 44.4574C115.807 44.2732 116.353 43.9059 116.825 43.2819C117.444 42.5105 117.989 41.3718 118.462 40.087C120.062 39.7934 121.19 38.2138 121.917 36.6342C122.281 35.826 122.644 35.0914 122.827 34.5779C123.808 32.007 122.9 32.5574 121.917 34.7621C121.736 35.1662 121.481 35.7166 121.226 36.3049C120.826 37.2236 119.881 38.5453 118.79 39.0968C119.48 36.8932 119.954 34.396 120.099 32.4491C120.39 28.0787 117.043 27.0863 115.117 28.8858V30.9432C115.589 29.5478 116.281 28.5922 116.826 28.8501C118.136 29.4373 116.936 34.8369 115.953 38.7306C115.589 38.437 115.298 38.0698 115.08 37.6657V39.0979C115.262 39.3178 115.481 39.502 115.699 39.6125C115.481 40.4207 115.263 41.1184 115.044 41.7056L115.225 44.4574ZM114.134 43.5755V44.7878C114.425 44.7945 114.936 44.5958 115.225 44.4574L115.044 41.7023C114.764 42.515 114.484 43.0899 114.236 43.4594C114.217 43.4884 114.195 43.5141 114.17 43.5386L114.134 43.5755ZM115.079 39.0946V37.6623C114.097 35.7891 114.46 32.8878 115.115 30.941V28.8836C114.934 29.0667 114.679 29.3982 114.533 29.6181C114.424 29.6181 114.315 29.655 114.206 29.6918V37.736C114.425 38.2863 114.751 38.7273 115.079 39.0946ZM114.206 37.7349V29.6907C112.023 30.6094 110.35 36.9267 110.169 39.9385C110.024 42.4357 112.06 44.7498 114.133 44.7867V43.5743C113.115 45.0066 112.386 43.4638 112.787 40.8561C112.969 39.4975 113.296 37.8443 113.66 36.191C113.77 36.7804 113.988 37.2582 114.206 37.7349Z" fill="white"/>
        <path d="M138.888 43.2741C139.47 43.0899 140.015 42.7227 140.488 42.0986C141.107 41.3273 141.652 40.1886 142.125 38.9026C143.725 38.609 144.853 37.0294 145.58 35.4499C145.944 34.6416 146.307 33.9071 146.489 33.3936C147.471 30.8227 146.563 31.3731 145.58 33.5778C145.398 33.9819 145.144 34.5322 144.889 35.1205C144.489 36.0393 143.544 37.361 142.452 37.9125C143.143 35.7088 143.617 33.2116 143.762 31.2648C144.053 26.8944 140.706 25.902 138.779 27.7015V29.7589C139.252 28.3635 139.944 27.4079 140.489 27.6658C141.798 28.253 140.599 33.6526 139.616 37.5463C139.252 37.2527 138.961 36.8854 138.743 36.4813V37.9136C138.924 38.1335 139.143 38.3177 139.361 38.4282C139.143 39.2364 138.925 39.9341 138.706 40.5213L138.888 43.2741ZM137.797 42.3922V43.6046C138.088 43.6113 138.599 43.4126 138.888 43.2741L138.706 40.5191C138.426 41.3317 138.146 41.9066 137.898 42.2761C137.88 42.3052 137.857 42.3308 137.833 42.3554L137.797 42.3922ZM138.742 37.9113V36.4791C137.76 34.6059 138.123 31.7046 138.778 29.7577V27.7004C138.597 27.8835 138.342 28.215 138.196 28.4349C138.087 28.4349 137.978 28.4718 137.869 28.5086V36.5528C138.088 37.1031 138.415 37.5441 138.742 37.9113ZM137.87 36.5528V28.5086C135.687 29.4273 134.014 35.7446 133.833 38.7564C133.688 41.2536 135.724 43.5677 137.797 43.6046V42.3922C136.778 43.8245 136.05 42.2817 136.451 39.674C136.632 38.3154 136.96 36.6622 137.324 35.0089C137.433 35.5972 137.651 36.075 137.87 36.5528Z" fill="white"/>
        <path d="M48.5042 12.2975C48.1401 12.0039 47.7406 11.9302 47.5945 12.1501C47.3765 12.4437 47.4496 12.6647 47.267 13.5455C47.0855 14.4274 46.7944 15.4924 46.4668 16.5573C46.2488 17.3287 45.1211 20.9277 44.03 24.3805C42.9023 27.9059 41.7392 32.0206 40.648 35.6933C40.1024 37.5296 39.3388 40.7625 39.9574 42.5252C40.285 43.4808 41.0486 43.9943 42.4674 43.627C43.958 43.2597 45.7409 39.1461 46.3595 37.8232C46.832 36.8319 47.6322 35.1787 48.2508 33.7833C48.8694 32.4236 49.0874 30.3673 47.7052 33.416C46.2145 36.6478 43.595 42.0474 42.8314 41.9C42.5769 41.8632 42.5404 41.4223 42.6134 40.9087C42.9045 38.08 43.8142 34.7377 44.6143 31.9469C45.9965 27.1724 48.6149 18.3569 48.979 16.1532C49.1605 15.0514 49.488 12.9941 48.4334 12.2227L48.5042 12.2975Z" fill="#FF0752"/>
        <path d="M54.9339 12.2975C54.5698 12.0039 54.1703 11.9302 54.0242 12.1501C53.8062 12.4437 53.8793 12.6647 53.6967 13.5455C53.5152 14.4274 53.2241 15.4924 52.8965 16.5573C52.6785 17.3287 51.5508 20.9277 50.4597 24.3805C49.332 27.9059 48.1678 32.0206 47.0777 35.6933C46.5321 37.5296 45.7685 40.7625 46.3871 42.5252C46.7147 43.4808 47.4783 43.9943 48.897 43.627C50.3877 43.2597 52.1706 39.1461 52.7881 37.8232C53.2606 36.8319 54.0607 35.1787 54.6794 33.7833C55.298 32.4236 55.516 30.3673 54.1338 33.416C52.6431 36.6478 50.0236 42.0474 49.26 41.9C49.0055 41.8632 48.969 41.4223 49.042 40.9087C49.3331 38.08 50.2416 34.7377 51.0429 31.9469C52.4251 27.1724 55.0435 18.3569 55.4076 16.1532C55.5891 15.0514 55.9166 12.9941 54.862 12.2227L54.9339 12.2975Z" fill="#FF0752"/>
        <path d="M56.597 27.3566C55.2148 28.2017 54.7787 29.8538 54.5607 30.7357C54.2331 32.0575 53.215 35.6576 52.6694 38.7431C52.4879 39.8081 52.3419 41.0204 52.9605 42.1222C53.3965 42.9304 54.3062 43.8849 55.3608 43.6281C56.8515 43.2608 58.6344 39.1472 59.253 37.8244L59.544 37.2372C57.4347 45.6118 54.1247 57.9896 47.1781 56.2258C43.7597 55.3807 45.7229 51.3039 48.2693 49.2108C50.0876 47.7049 52.5245 46.7862 54.5618 46.7136C55.3985 46.6768 55.798 46.3464 54.3803 46.199C49.8341 45.6844 42.0875 49.9822 42.8511 54.2064C43.1421 55.7491 44.9969 56.7036 47.6518 57.0708C58.3444 58.5399 60.0542 49.6149 61.5449 40.6531C62.0905 40.4332 62.5995 40.0291 62.8906 39.6987C63.5457 38.9273 63.9452 37.8623 64.0902 37.4951C64.5993 36.1733 65.4359 34.5201 65.7635 33.6013C66.7451 31.0304 65.9815 31.5439 64.9999 33.7487C64.6723 34.5201 63.9452 35.9155 63.4727 36.871C63.1451 37.5687 62.6726 38.5969 61.909 38.3769C62.4546 35.182 63.0732 32.0597 64.1644 29.5256C64.5285 28.6806 64.3824 29.1215 65.2555 27.6525C65.7646 26.8442 64.928 26.2202 63.4373 27.4683C62.4557 28.2765 61.8736 29.6719 61.328 30.9579C60.6728 32.5006 60.4913 33.6761 59.7643 35.2557C58.3455 38.3044 56.6368 41.794 56.0182 41.6835C55.3996 41.573 55.8367 39.6272 55.9086 39.1863L57.4358 31.6935C57.7634 30.0771 58.6 28.4618 59.0726 27.8366C60.1272 26.4044 57.8364 26.5138 56.6722 27.2126L56.597 27.3566Z" fill="#FF0752"/>
        <path d="M74.3314 42.7829C64.4024 41.9379 70.8034 22.0305 78.0775 10.7546C81.569 5.35496 84.588 3.40922 86.2247 3.26186C90.0073 2.93143 91.6076 6.97139 89.7893 15.787C88.2986 23.0598 82.2607 39.6249 80.3694 47.227C79.9699 48.7697 79.7507 50.2757 81.0965 51.6342C82.9877 53.5443 83.1692 54.3156 83.8244 51.5605C84.7695 47.63 86.9518 41.4233 89.0257 34.1504C91.6087 25.6664 94.5181 18.1368 95.3902 16.8508C96.6263 15.0145 98.4457 14.684 97.318 19.2018C95.8992 24.895 94.227 30.4041 92.7718 36.0605C91.8621 39.6226 91.2081 40.6887 91.8986 42.1209C93.0994 44.6918 94.8811 47.2996 95.8262 43.4058C96.6628 39.8437 97.5725 35.9499 98.4811 32.0562C100.372 26.4735 102.264 22.5061 102.918 21.5885C104.154 19.7521 106.591 19.5311 105.464 24.0488C104.955 26.1051 102.809 33.0107 101.828 37.4916C101.319 39.7689 101.5 41.7157 101.973 43.0006C103.027 45.8651 105.646 44.5802 107.355 42.6333C108.846 40.9432 110.957 36.757 112.193 33.8546C112.702 32.6791 111.975 32.716 111.538 33.6347C110.483 35.8751 109.064 38.4829 107.828 40.0993C106.01 42.4503 104.955 42.1924 105.609 39.2911C106.519 35.1406 106.918 32.7528 107.645 29.0801C108.154 26.4724 109.464 20.9265 107.682 18.9796C106.664 17.841 105.064 17.217 103.209 19.3101C102.264 20.375 101.281 22.102 100.299 24.1582C100.808 21.881 101.317 19.6773 101.755 17.6568C103.027 12.0004 100.045 9.42953 96.2622 13.6537C95.0261 15.0491 93.6804 17.6936 92.4066 20.6686C92.8072 18.5019 93.1337 16.2982 93.3882 14.0935C94.1518 7.29847 90.9878 -0.231101 84.3689 2.59765C77.1324 5.68539 66.6213 24.4541 65.2756 37.0897C64.512 44.3257 68.6221 49.9084 75.0596 44.4719C76.2603 43.4438 75.7147 43.0765 74.587 42.5987L74.3314 42.7829Z" fill="white"/>
        <path d="M134.342 26.2178C134.523 26.3283 134.669 26.2546 134.633 25.961C134.305 23.3533 130.85 22.141 127.432 22.5819C128.704 18.8724 130.013 15.7501 130.923 14.4283C131.287 13.9137 130.96 13.8412 130.268 14.1716C128.377 15.0903 126.267 18.8724 124.484 23.2808C118.375 24.7498 116.083 25.8516 116.846 25.8516C118.082 25.8516 120.374 25.4475 123.684 25.1908C121.757 30.3326 120.338 35.8427 120.229 38.4504C120.193 39.185 120.084 40.8014 120.63 42.0494C121.103 43.1881 122.157 44.0331 123.321 43.7395C124.812 43.3723 126.595 39.2586 127.214 37.9358C127.686 36.9445 128.486 35.3649 129.105 34.0052C130.595 30.8103 128.995 32.6467 128.45 33.821C126.959 37.0896 124.486 42.1957 123.757 42.0483C122.448 41.7916 123.503 37.016 123.684 36.1352C124.339 32.8666 125.431 28.8255 126.63 25.0792C129.758 25.0055 133.141 25.3727 134.34 26.2915V26.2178H134.342Z" fill="white"/>
        <path d="M131.366 20.8931C131.221 21.9212 131.911 22.7663 132.929 22.7663C133.948 22.7663 134.894 21.9212 135.039 20.8931C135.184 19.865 134.493 19.0199 133.475 19.0199C132.457 19.0199 131.511 19.865 131.366 20.8931Z" fill="white"/>
        <path d="M145.888 41.0561C146.07 40.5415 146.288 39.9174 146.544 39.1829C148.217 34.2242 150.69 29.8538 151.126 29.193C151.926 28.0175 153.272 27.8712 152.545 30.7725C152.217 32.0954 151.272 35.8786 150.617 38.7799C150.399 39.8449 150.29 41.0572 150.908 42.159C151.344 42.9672 152.254 43.9217 153.309 43.6649C154.799 43.2977 156.582 39.184 157.201 37.8623C157.673 36.871 158.473 35.2914 159.092 33.9317C160.583 30.7368 158.983 32.5732 158.437 33.7475C156.946 37.0161 154.473 42.1222 153.745 41.9748C153.126 41.8643 153.745 39.7344 153.854 39.2934C154.182 37.7875 154.872 34.0411 155.381 31.8007C155.746 30.1842 155.746 28.6783 154.836 27.687C154.181 26.9525 152.472 26.4379 151.271 27.7976C149.962 29.2666 148.47 32.5352 147.271 35.4734C147.635 33.6739 147.889 31.8744 147.889 30.1474C147.889 29.3024 147.744 28.4941 147.162 28.0532C146.798 27.7596 146.399 27.6859 146.253 27.9058C146.035 28.1994 146.108 28.4205 145.925 29.3012C145.379 32.2394 142.288 40.614 142.834 41.7895C143.598 43.4428 144.907 45.1318 145.525 42.6346C145.635 42.1199 145.78 41.6064 145.925 41.0918L145.888 41.0561Z" fill="white"/>
        <path d="M74.7397 9.31677C74.7397 9.31677 82.7343 -2.01164 90.5861 1.34848C90.5861 1.34737 82.6867 -4.84486 74.7397 9.31677Z" fill="white"/>
        <path d="M6.37978 33.7018C6.37978 33.7018 -3.61341 42.1981 5.09494 51.4869C5.09494 51.4869 -7.18241 43.3501 6.37978 33.7018Z" fill="#FF0752"/>
        <path d="M78.0908 27.4906L77.7068 27.236L77.6968 27.2293C76.9354 26.7225 76.6101 25.6252 76.9697 24.779L80.8397 15.6743L79.2782 22.9192C79.1023 23.7341 78.851 24.529 78.5257 25.2948C78.487 25.3874 78.5113 25.5035 78.5799 25.575C78.5921 25.5872 78.6043 25.5984 78.6175 25.6073L78.9042 25.7993L78.8544 26.8353L78.0908 27.4906Z" fill="#FF0752"/>
        <path d="M78.9239 28.0597L78.541 27.8041L78.5521 27.7952L79.3212 27.1243L79.3633 26.1073V26.0995L79.7462 26.3551V26.3629L79.6964 27.3978L78.9361 28.0497L78.9239 28.0597Z" fill="#FF0752"/>
        <path d="M78.7415 34.5054L80.0761 27.8142C80.2421 26.9836 80.4878 26.1721 80.8098 25.3895C80.8485 25.2969 80.822 25.1808 80.7522 25.1104C80.7401 25.0982 80.7279 25.0881 80.7146 25.0781L80.4269 24.8894L80.4656 23.8535L81.2226 23.1904L81.6099 23.4404L81.6199 23.4471C82.3857 23.9461 82.7232 25.039 82.3724 25.8896L78.7415 34.5054Z" fill="white"/>
        <path d="M80.3827 22.6301L80.7689 22.8812L80.7578 22.8913L79.9953 23.57L79.9643 24.5881V24.5948L79.5781 24.3436L79.5792 24.3358L79.6169 23.301L80.3705 22.6412L80.3827 22.6301Z" fill="white"/>
    </g>
    <defs>
        <clipPath id="clip0_294_4275">
            <rect width="159.71" height="57.2293" fill="white"/>
        </clipPath>
    </defs>
</svg>
