<svg width="99" height="36" fill="none" xmlns="http://www.w3.org/2000/svg">
    <path d="M19.956 10.616c.223-.921.312-1.842-.358-2.65 1.697-.63 3.013-1.012 3.973-1.214.602-.134.848-.337.067-.696-1.16-.54-4.285-.427-6.74.359-2.253.719-2.566 2.695-2.008 3.167.38.337.87-.023 2.7-.786l.201-.09-3.414 13.656c-1.004 4.022-2.299 6.672-3.638 8.11-3.593 3.908-8.436-.72-5.289-5.66 1.183-1.865 4.263-2.809 5.669-3.393.267-.112.446-.247.446-.359.022-.202-.446-.606-.826-.696-7.967-2.112-13.01 13.118-.692 12.152 3.772-.292 6.183-6.536 7.008-9.973l2.9-11.927ZM21.499 27.081c.357-.112.692-.337.982-.718.38-.472.714-1.168 1.004-1.955.982-.18 1.674-1.146 2.12-2.112.224-.494.447-.943.558-1.257.603-1.573.045-1.236-.558.112-.111.248-.267.584-.423.944-.246.562-.826 1.37-1.496 1.707.424-1.347.715-2.875.804-4.065.178-2.673-1.875-3.28-3.057-2.18v1.259c.29-.854.714-1.438 1.049-1.28.803.359.067 3.661-.536 6.042a2.133 2.133 0 0 1-.536-.65v.875c.111.135.246.247.38.315a14.54 14.54 0 0 1-.402 1.28l.111 1.683Zm-.67-.538v.741c.18.004.493-.117.67-.202l-.111-1.685c-.172.497-.344.849-.496 1.075a.3.3 0 0 1-.04.048l-.023.023Zm.581-2.74v-.877c-.602-1.145-.38-2.92.023-4.11v-1.258a3.54 3.54 0 0 0-.358.449c-.067 0-.133.022-.2.045v4.92c.133.336.334.605.535.83Zm-.536-.832v-4.92c-1.339.562-2.366 4.426-2.477 6.268-.089 1.527 1.16 2.942 2.433 2.965v-.742c-.625.876-1.072-.067-.826-1.662.111-.831.312-1.842.535-2.853.068.36.201.652.335.944ZM70.996 27.589c.357-.113.692-.338.982-.72.38-.471.714-1.167 1.004-1.953.982-.18 1.674-1.146 2.12-2.112.224-.494.446-.943.558-1.257.603-1.573.045-1.236-.558.112-.111.247-.267.584-.424.944-.245.562-.825 1.37-1.495 1.707.424-1.347.714-2.875.803-4.065.179-2.673-1.874-3.28-3.057-2.18v1.259c.29-.854.715-1.438 1.05-1.28.803.359.067 3.661-.536 6.042a2.134 2.134 0 0 1-.536-.651v.876c.111.134.246.247.38.315-.134.494-.268.92-.403 1.28l.112 1.683Zm-.67-.54v.742c.179.004.493-.118.67-.202l-.112-1.685c-.171.497-.343.848-.495 1.074a.299.299 0 0 1-.04.049l-.023.022Zm.58-2.74v-.876c-.602-1.146-.38-2.92.023-4.11v-1.259a3.54 3.54 0 0 0-.358.45c-.067 0-.133.022-.2.044v4.92c.134.337.334.606.535.83Zm-.536-.832v-4.92c-1.339.563-2.366 4.426-2.477 6.268-.089 1.527 1.16 2.942 2.433 2.965v-.741c-.625.875-1.072-.068-.826-1.663.111-.83.312-1.842.536-2.853.067.36.2.653.334.944ZM85.516 26.865c.357-.113.692-.338.982-.72.38-.471.714-1.167 1.004-1.954.982-.18 1.674-1.145 2.12-2.111.223-.495.446-.944.558-1.258.602-1.572.045-1.236-.558.113-.111.247-.268.583-.424.943-.246.562-.826 1.37-1.495 1.708.424-1.348.714-2.875.803-4.066.179-2.673-1.875-3.28-3.057-2.18v1.26c.29-.854.715-1.439 1.05-1.281.803.36.067 3.661-.537 6.043a2.135 2.135 0 0 1-.535-.652v.876c.111.135.245.248.38.315a14.54 14.54 0 0 1-.403 1.28l.112 1.684Zm-.67-.54v.742c.179.004.492-.118.67-.202l-.112-1.685c-.171.497-.343.848-.495 1.074a.3.3 0 0 1-.04.049l-.023.022Zm.58-2.74v-.876c-.602-1.146-.38-2.92.022-4.11V17.34a3.54 3.54 0 0 0-.357.45c-.067 0-.134.022-.2.044v4.92c.134.337.335.606.535.83Zm-.535-.83v-4.92c-1.34.561-2.366 4.425-2.477 6.267-.09 1.527 1.16 2.942 2.432 2.965v-.742c-.625.876-1.072-.067-.826-1.662.112-.83.313-1.842.536-2.853.067.36.2.652.335.944Z"
          fill="#8A8A8A"/>
    <path d="M30.056 7.922c-.224-.18-.469-.224-.559-.09-.133.18-.088.315-.2.853-.112.54-.29 1.191-.492 1.842-.133.472-.825 2.673-1.495 4.785-.692 2.156-1.405 4.672-2.075 6.918-.335 1.123-.803 3.1-.424 4.179.201.584.67.898 1.54.673.915-.224 2.01-2.74 2.389-3.549.29-.606.78-1.617 1.16-2.47.38-.832.514-2.09-.335-.225-.914 1.976-2.522 5.278-2.99 5.188-.156-.022-.179-.292-.134-.606.179-1.73.737-3.774 1.228-5.48.848-2.92 2.455-8.312 2.678-9.66.111-.674.312-1.932-.335-2.404l.044.046Z"
          fill="#8A8A8A"/>
    <path d="M34.001 7.922c-.223-.18-.469-.224-.558-.09-.134.18-.09.315-.201.853-.112.54-.29 1.191-.491 1.842-.134.472-.826 2.673-1.495 4.785-.692 2.156-1.407 4.672-2.076 6.918-.334 1.123-.803 3.1-.423 4.179.2.584.67.898 1.54.673.914-.224 2.008-2.74 2.387-3.549.29-.606.781-1.617 1.16-2.47.38-.832.514-2.09-.334-.225-.915 1.976-2.522 5.278-2.99 5.188-.157-.022-.18-.292-.134-.606.178-1.73.736-3.774 1.227-5.48.849-2.92 2.455-8.312 2.679-9.66.111-.674.312-1.932-.335-2.404l.044.046Z"
          fill="#8A8A8A"/>
    <path d="M35.022 17.131c-.849.517-1.116 1.528-1.25 2.067-.2.808-.826 3.01-1.16 4.897-.112.652-.202 1.393.178 2.067.268.494.826 1.078 1.473.92.915-.224 2.009-2.74 2.388-3.549l.179-.359c-1.294 5.122-3.325 12.692-7.588 11.613-2.098-.517-.893-3.01.67-4.29 1.115-.921 2.61-1.483 3.86-1.527.514-.023.76-.225-.11-.315-2.79-.315-7.544 2.314-7.075 4.897.178.944 1.317 1.527 2.946 1.752 6.56.898 7.61-4.56 8.525-10.04.334-.135.647-.382.825-.584.402-.472.648-1.123.736-1.348.313-.808.826-1.82 1.027-2.381.602-1.573.134-1.259-.468.09-.201.471-.647 1.325-.938 1.91-.2.426-.49 1.055-.959.92.335-1.954.714-3.863 1.384-5.413.223-.517.134-.247.67-1.146.312-.494-.202-.876-1.116-.112-.602.494-.96 1.348-1.294 2.134-.402.944-.514 1.662-.96 2.628-.87 1.865-1.919 3.999-2.299 3.931-.38-.067-.111-1.257-.067-1.527l.937-4.582c.201-.989.715-1.977 1.005-2.359.647-.876-.759-.809-1.473-.381l-.046.087Z"
          fill="#8A8A8A"/>
    <path d="M45.904 26.565c-6.093-.517-2.165-12.691 2.298-19.587 2.143-3.303 3.995-4.493 5-4.583 2.32-.202 3.302 2.269 2.187 7.66-.915 4.448-4.62 14.579-5.78 19.228-.246.944-.38 1.865.446 2.695 1.16 1.169 1.272 1.64 1.674-.045.58-2.403 1.919-6.2 3.191-10.647 1.585-5.189 3.37-9.794 3.905-10.58.759-1.123 1.875-1.325 1.183 1.438-.87 3.482-1.896 6.85-2.79 10.31-.557 2.178-.959 2.83-.535 3.706.737 1.573 1.83 3.168 2.41.786.513-2.178 1.072-4.56 1.63-6.94 1.16-3.415 2.32-5.841 2.721-6.403.759-1.123 2.254-1.258 1.563 1.505-.312 1.258-1.63 5.48-2.231 8.221-.313 1.393-.201 2.584.088 3.37.648 1.751 2.254.965 3.304-.225.914-1.034 2.21-3.594 2.968-5.37.312-.718-.134-.695-.402-.133-.647 1.37-1.518 2.965-2.277 3.953-1.115 1.438-1.762 1.28-1.361-.494.558-2.539.803-3.999 1.25-6.245.312-1.595 1.115-4.986.022-6.177-.625-.696-1.607-1.078-2.745.202-.58.651-1.183 1.707-1.785 2.965.312-1.393.624-2.74.893-3.976.78-3.46-1.05-5.032-3.37-2.448-.759.853-1.585 2.47-2.366 4.29.245-1.325.446-2.673.602-4.021.469-4.156-1.473-8.76-5.534-7.03-4.44 1.887-10.89 13.366-11.716 21.093-.469 4.426 2.053 7.84 6.003 4.515.737-.629.402-.853-.29-1.145l-.156.112ZM82.727 16.435c.11.068.2.023.178-.157-.2-1.595-2.32-2.336-4.418-2.066.78-2.27 1.584-4.179 2.142-4.987.223-.315.022-.36-.402-.157-1.16.562-2.455 2.875-3.549 5.57-3.749.9-5.155 1.573-4.687 1.573.759 0 2.165-.247 4.196-.404-1.183 3.145-2.053 6.514-2.12 8.11-.022.448-.089 1.437.246 2.2.29.697.937 1.213 1.651 1.034.915-.225 2.01-2.74 2.389-3.55.29-.606.78-1.572 1.16-2.403.915-1.954-.067-.831-.402-.113-.915 1.999-2.432 5.122-2.879 5.032-.803-.157-.156-3.078-.045-3.617.402-1.999 1.072-4.47 1.808-6.761 1.919-.045 3.995.18 4.73.741v-.045h.002Z"
          fill="#8A8A8A"/>
    <path d="M80.9 13.179c-.089.629.335 1.145.96 1.145s1.205-.516 1.294-1.145c.09-.629-.334-1.146-.96-1.146-.624 0-1.205.517-1.294 1.146ZM89.812 25.51c.112-.315.245-.697.402-1.146 1.027-3.032 2.544-5.705 2.812-6.11.491-.718 1.317-.808.87.967-.2.809-.78 3.122-1.182 4.897-.134.651-.201 1.393.178 2.066.268.495.826 1.078 1.473.921.915-.224 2.009-2.74 2.388-3.548.29-.607.781-1.573 1.161-2.404.915-1.954-.067-.831-.402-.113-.915 2-2.432 5.122-2.88 5.032-.379-.068 0-1.37.068-1.64.201-.921.625-3.212.937-4.582.224-.99.224-1.91-.335-2.516-.402-.45-1.45-.764-2.187.067-.803.899-1.719 2.898-2.455 4.695.224-1.101.38-2.201.38-3.258 0-.517-.09-1.01-.446-1.28-.224-.18-.469-.225-.558-.09-.134.179-.09.314-.201.853-.335 1.797-2.232 6.918-1.897 7.637.468 1.011 1.272 2.044 1.651.517.068-.315.157-.629.246-.943l-.023-.022ZM46.154 6.098S51.06-.83 55.878 1.225c0 0-4.847-3.787-9.724 4.873ZM4.208 21.012s-6.132 5.196-.789 10.877c0 0-7.533-4.977.789-10.877ZM48.21 17.213l-.235-.156-.006-.004c-.468-.31-.667-.981-.447-1.498l2.375-5.569-.958 4.431a8.052 8.052 0 0 1-.462 1.453.164.164 0 0 0 .057.191l.175.117-.03.634-.469.4ZM48.721 17.56l-.235-.157.007-.005.472-.41.026-.622v-.005l.234.157v.004l-.03.633-.466.399-.008.006ZM48.61 21.502l.818-4.092a8.014 8.014 0 0 1 .45-1.483.162.162 0 0 0-.058-.19l-.176-.116.023-.633.465-.406.238.153.006.004c.47.305.677.974.461 1.494l-2.228 5.269ZM49.617 14.24l.236.154-.006.006-.468.415-.02.622v.004l-.236-.153v-.005l.024-.633.462-.403.008-.007ZM82.003 17.49c.647-.877-.759-.81-1.473-.382-.848.516-1.116 1.527-1.25 2.066-.2.809-.825 3.01-1.16 4.897-.112.652-.201 1.393.178 2.067.268.494.826 1.078 1.473.92.915-.224 2.009-2.74 2.389-3.549.267-.539.692-1.392 1.049-2.178.423-.921.402-1.865-.424-.113-.937 2-2.231 4.785-2.656 4.695-.38-.068-.111-1.258-.067-1.528l.937-4.582c.201-.989.714-1.977 1.004-2.359v.045Z"
          fill="#8A8A8A"/>
</svg>
