<svg xmlns="http://www.w3.org/2000/svg" width="217" height="109" fill="none"><path fill="#FCFCFC" d="M98.36 100.47c-4.7 8.38-15.93 10.3-23.5 4.37a23.7 23.7 0 0 1-2.34-2.07C47.1 76.84 33.16 60.67 7.8 34.7c-1.3-1.33-3.25-2.9-1.37-4.6.85-.76 3.58-.42 4.84.38 30.98 19.67 50.49 29.6 81.37 49.43 7.02 4.5 9.5 13.1 6.09 19.9l-.37.67ZM86.97 85.5c-3.99-1.4-8.27.69-9.59 4.67a7.55 7.55 0 0 0 13.42 6.59 7.5 7.5 0 0 0-3.83-11.26Z"/><path fill="#EF1D50" d="m9.73 72.51.31.13a2.88 2.88 0 0 1 1.54 3.93 88.72 88.72 0 0 0-8.28 30.26 1.62 1.62 0 0 1-3.22-.15 107.68 107.68 0 0 1 5.4-32.18 3.23 3.23 0 0 1 4.25-1.99ZM16.13 51.62l6.72 7.1a90.16 90.16 0 0 0-5.54 7.62 4.16 4.16 0 0 1-5.02 1.62l-.85-.34a3.06 3.06 0 0 1-1.67-4.1c1.87-4.11 4-8.08 6.36-11.9ZM43.46 40.1c-.88.57-1.75 1.17-2.6 1.78-3.83-2.28-7.76-4.64-11.86-7.14 2.28-2.45 4.67-4.79 7.17-7.02a3.5 3.5 0 0 1 5.25.7l3.4 5.15a4.7 4.7 0 0 1-1.36 6.53Z"/><path fill="#FCFCFC" d="m82.26 8.73 1.9 12.44a4.52 4.52 0 0 1-3.86 5.16 88.8 88.8 0 0 0-25.32 7.39c-1.69.78-3.7.22-4.73-1.34l-4.44-6.73a4.72 4.72 0 0 1 1.29-6.5C55.97 13.05 65.8 8.25 76.32 5c2.7-.84 5.5.93 5.94 3.72ZM133.92 8.6 128.3 27.5a4.65 4.65 0 0 1-6 3.05 89.65 89.65 0 0 0-29.77-5.06 2.86 2.86 0 0 1-2.83-2.42L87.3 7.3a5.1 5.1 0 0 1 4.27-5.8 109.4 109.4 0 0 1 38.66.9 4.9 4.9 0 0 1 3.7 6.2ZM179.23 34.39 162.26 50.6a5.44 5.44 0 0 1-7.55-.04 89.69 89.69 0 0 0-19.21-14.12 5.4 5.4 0 0 1-2.58-6.28l5.87-19.76a5.43 5.43 0 0 1 7.06-3.56 108.18 108.18 0 0 1 33.2 19.54 5.4 5.4 0 0 1 .18 8ZM206.04 78.07l-23.57 6.65c-2.84.8-5.8-.68-6.91-3.41a89.15 89.15 0 0 0-10.67-19.1 5.76 5.76 0 0 1 .64-7.57l17.24-16.48a5.75 5.75 0 0 1 8.35.4 107.98 107.98 0 0 1 18.77 32.01 5.73 5.73 0 0 1-3.85 7.5ZM208.24 108.32h-21.78a5.06 5.06 0 0 1-5.03-4.42c-.34-2.77-.8-5.49-1.4-8.16a5.06 5.06 0 0 1 3.58-5.96l24.54-6.92c2.83-.8 5.77.96 6.36 3.83.86 4.21 1.47 8.51 1.82 12.89a8.11 8.11 0 0 1-8.1 8.74Z"/></svg>
