<svg xmlns="http://www.w3.org/2000/svg" width="294" height="172" fill="none"><path fill="#FCFCFC" d="M111.5 171.17c-12.97-1.66-21.09-14.84-17.44-27.37.4-1.37.85-2.7 1.42-4 19.87-45.15 39.87-90.25 59.84-135.36 1.03-2.33 2.02-5.56 5.12-4.05 1.4.68 2.35 4.28 1.98 6.27-9.14 48.98-18.44 97.94-27.84 146.87-2.14 11.12-11.73 18.62-22.05 17.75l-1.03-.1Zm13.13-21.93a10.1 10.1 0 0 0-10.76-9.7c-6.41.4-11.2 6.69-9.2 13.25a10.22 10.22 0 0 0 19.96-3.54Z"/><path fill="#CAE84B" d="m13.12 122.72.43.17a3.91 3.91 0 0 1 2.09 5.34 120.6 120.6 0 0 0-11.25 41.15 2.2 2.2 0 0 1-4.39-.2 146.38 146.38 0 0 1 7.34-43.76 4.38 4.38 0 0 1 5.78-2.7ZM56.2 62.79l4.62 7a6.4 6.4 0 0 1-1.84 8.87 122.25 122.25 0 0 0-35.55 35.66 5.65 5.65 0 0 1-6.82 2.2l-1.16-.45a4.17 4.17 0 0 1-2.28-5.59 147.22 147.22 0 0 1 35.9-48.65 4.76 4.76 0 0 1 7.13.96ZM111.71 36.02l2.59 16.9a6.14 6.14 0 0 1-5.24 7.01 120.71 120.71 0 0 0-34.42 10.05 5.13 5.13 0 0 1-6.44-1.81L62.16 59a6.42 6.42 0 0 1 1.76-8.83 146.74 146.74 0 0 1 39.72-19.23 6.3 6.3 0 0 1 8.07 5.07ZM124.36 26.18c4.42-.7 8.89-1.18 13.42-1.46l-2.51 5.68-12.16 27.45a3.9 3.9 0 0 1-1.29-2.33l-3.27-21.45a6.94 6.94 0 0 1 5.8-7.9ZM181.95 35.83l-7.65 25.71a6.32 6.32 0 0 1-8.17 4.15 112.6 112.6 0 0 0-6.44-2.07l7.13-37.9c3.4.45 6.77 1.01 10.1 1.7a6.66 6.66 0 0 1 5.03 8.41Z"/><path fill="#FCFCFC" d="m243.53 70.9-23.07 22.04a7.4 7.4 0 0 1-10.26-.05 121.93 121.93 0 0 0-26.11-19.2 7.34 7.34 0 0 1-3.51-8.53l7.99-26.86a7.38 7.38 0 0 1 9.6-4.84 147.07 147.07 0 0 1 45.11 26.57 7.33 7.33 0 0 1 .25 10.86ZM279.99 130.27l-32.05 9.04a7.85 7.85 0 0 1-9.4-4.64 121.15 121.15 0 0 0-14.5-25.95 7.83 7.83 0 0 1 .87-10.3l23.44-22.4a7.81 7.81 0 0 1 11.35.54 146.77 146.77 0 0 1 25.51 43.52 7.79 7.79 0 0 1-5.22 10.19ZM282.97 171.4h-29.6a6.87 6.87 0 0 1-6.84-6.02 120.2 120.2 0 0 0-1.9-11.09 6.88 6.88 0 0 1 4.86-8.1l33.36-9.4a6.9 6.9 0 0 1 8.64 5.2c1.17 5.73 2 11.57 2.48 17.52.5 6.4-4.56 11.88-11 11.88Z"/></svg>
