<svg width="118" height="36" viewBox="0 0 118 36" fill="none" xmlns="http://www.w3.org/2000/svg">
    <path d="M109.588 0H108.592H101.755H100.759H93.4699H92.4739H90.9345H89.9384C84.9581 0 80.1589 4.18494 79.2986 9.36856L76.3104 26.6314C75.4049 31.8151 78.7553 36 83.7356 36H84.7317H88.2632H89.2593H94.5565H95.5526H102.389H103.385C108.366 36 113.165 31.8151 114.025 26.6314L117.013 9.36856C117.919 4.18494 114.614 0 109.588 0ZM103.974 25.3474C103.838 26.0132 103.249 26.5363 102.616 26.5363H97.1825H96.1865H90.8892H89.8931H87.8105C87.1766 26.5363 86.7691 26.0132 86.8597 25.3474L89.4404 10.4148C89.5762 9.74901 90.1648 9.22589 90.7987 9.22589H92.8813H93.8774H99.1747H100.171H105.604C106.238 9.22589 106.69 9.74901 106.555 10.4148L103.974 25.3474Z" fill="#8B8B8B"/>
    <path d="M14.5839 15.8237L25.2257 35.2829C25.5047 35.7132 26.0161 36 26.6206 36H27.6436H32.8514H33.8744C34.9438 36 36.0133 35.0917 36.1993 33.9922L41.9715 2.05565C42.1575 0.908309 41.4135 0 40.344 0H39.3211H34.8107H33.7878C32.7183 0 31.6488 0.90831 31.4628 2.00784L28.5334 18.6921C28.4404 19.1223 27.8825 19.2179 27.6035 18.8355L17.6993 0.717086C17.4203 0.286834 16.9088 0 16.3044 0H15.3279H9.00412H7.98115C6.86519 0 5.84223 0.90831 5.65624 2.00784L0.0299336 33.9899C-0.15606 35.0894 0.541416 35.9977 1.65738 35.9977H2.68034H7.19068H8.21365C9.32961 35.9977 10.3526 35.0894 10.5386 33.9899L13.7005 15.9671C13.7935 15.5369 14.3514 15.4413 14.5839 15.8237Z" fill="#8B8B8B"/>
    <path d="M41.755 36H69.097H70.0799C70.7053 36 71.3308 35.4748 71.4202 34.8064L72.6264 27.7878C72.7605 27.1194 72.3137 26.5942 71.6882 26.5942H70.7053H51.9859C51.7625 26.5942 51.6285 26.4032 51.6732 26.2122L52.254 22.7745C52.2987 22.5358 52.4774 22.3926 52.7008 22.3926H67.578H68.5609C69.1863 22.3926 69.8118 21.8674 69.9012 21.1989L70.9734 14.992C71.0628 14.2281 70.6607 13.6552 70.0352 13.6552H69.0523H54.1751C53.9517 13.6552 53.8177 13.4642 53.8623 13.2732L54.4878 9.54907C54.5325 9.31034 54.7112 9.16711 54.9346 9.16711H73.654H74.6369C75.2623 9.16711 75.8878 8.64191 75.9772 7.97347L77.1387 1.19363C77.2728 0.525199 76.826 0 76.2005 0H75.2177H48.8586H47.8757C46.8035 0 45.8206 0.907162 45.6419 2.0053L40.1914 33.9947C40.0127 35.0928 40.6828 36 41.755 36Z" fill="#8B8B8B"/>
</svg>
