<svg width="75" height="23" fill="none" xmlns="http://www.w3.org/2000/svg">
    <path d="M69.637 0H57.183c-3.157 0-6.199 2.66-6.744 5.955l-1.894 10.973c-.574 3.295 1.55 5.956 4.706 5.956h12.455c3.156 0 6.198-2.66 6.743-5.956l1.895-10.973C74.916 2.66 72.823 0 69.637 0ZM66.08 16.112c-.086.423-.46.756-.861.756h-9.384c-.402 0-.66-.333-.603-.756l1.636-9.492c.086-.423.46-.756.86-.756H67.113c.402 0 .689.333.603.756l-1.636 9.492ZM9 10.036l6.658 12.334c.173.272.488.453.861.453h4.477c.66 0 1.32-.574 1.435-1.27L25.903 1.33C26.018.605 25.56.03 24.9.03h-4.047c-.66 0-1.32.575-1.434 1.27L17.61 11.85c-.058.272-.402.332-.574.09L10.923.485a1.005 1.005 0 0 0-.86-.454H4.925c-.69 0-1.32.575-1.435 1.27L.018 21.523c-.114.695.316 1.27 1.005 1.27h4.046c.689 0 1.32-.575 1.435-1.27l1.951-11.396a.293.293 0 0 1 .546-.09ZM26.19 22.853h18.195a.904.904 0 0 0 .86-.755l.776-4.444c.086-.423-.201-.756-.603-.756H32.763c-.144 0-.23-.12-.201-.242l.373-2.176a.283.283 0 0 1 .287-.242h10.187a.904.904 0 0 0 .86-.756l.69-3.93c.057-.483-.201-.846-.603-.846H34.169c-.144 0-.23-.12-.201-.242l.401-2.358a.283.283 0 0 1 .288-.241H47.31a.904.904 0 0 0 .862-.756l.746-4.293c.086-.423-.201-.755-.603-.755H30.122c-.688 0-1.32.574-1.434 1.27l-3.502 20.253c-.114.695.316 1.27 1.005 1.27Z"
          fill="#fff"/>
</svg>
