<svg width="78" height="24" fill="none" xmlns="http://www.w3.org/2000/svg">
    <g fill="#fff">
        <path d="M29.46 23.16h.63c.67 0 1.32-.56 1.44-1.24l.72-4.13a.3.3 0 0 1 .3-.24l4.93-.01a.6.6 0 0 1 .55.33l2.5 5.12c.28.55.77.62 2.25.6.87.01 2.2-.06 4.32-.06.68 0 1.1-.74.77-1.36l-2.72-5c-.07-.13 0-.29.15-.36a7.28 7.28 0 0 0 3.9-5.11l.9-5.1C50.65 3.4 48.53.78 45.36.78H29.93c-.67 0-1.32.56-1.44 1.24L25 21.92c-.12.69.33 1.24 1 1.24h3.46ZM34.2 6.62a.3.3 0 0 1 .29-.25h7.99c.6 0 1 .5.9 1.11l-.6 3.35c-.1.6-.68 1.1-1.27 1.1h-8c-.13 0-.22-.11-.2-.25l.9-5.06ZM25.22 6.57c.56-3.22-1.55-5.83-4.73-5.83H5.06c-.68 0-1.32.55-1.44 1.24L.13 21.88c-.12.7.33 1.25 1 1.25h4.09c.67 0 1.31-.56 1.44-1.25l.72-4.12a.3.3 0 0 1 .29-.25l9.89-.01c3.17 0 6.2-2.61 6.77-5.84l.89-5.09Zm-6.7.88-.6 3.34c-.1.61-.67 1.1-1.28 1.1H8.66c-.14 0-.23-.1-.2-.24l.88-5.07a.3.3 0 0 1 .29-.25h7.99c.6 0 1 .5.9 1.12ZM72.39.77H59.79c-3.2 0-6.26 2.64-6.83 5.89l-1.9 10.86c-.57 3.25 1.57 5.88 4.77 5.88h12.6c3.2 0 6.26-2.63 6.82-5.88l1.9-10.86C77.72 3.4 75.6.77 72.4.77Zm-3.62 15.98a.92.92 0 0 1-.87.75h-9.48c-.4 0-.68-.34-.6-.75l1.63-9.4a.92.92 0 0 1 .88-.75h9.48c.4 0 .68.34.6.75l-1.64 9.4Z"/>
    </g>
</svg>
