<svg width="123" height="37" viewBox="0 0 123 37" fill="none" xmlns="http://www.w3.org/2000/svg">
    <path d="M47.2364 35.9547H48.2315C49.2935 35.9547 50.3092 35.0759 50.4999 34L51.69 26.8116C51.7261 26.5986 51.9323 26.4228 52.1437 26.4228L59.9287 26.4122C60.3102 26.4122 60.635 26.6039 60.7948 26.9288L64.6681 35.051C65.096 35.9245 65.8694 36.031 68.2048 35.9937C69.5711 36.015 71.654 36 75 36C76.0775 36 76.7374 34.8336 76.2116 33.8589L72.0031 25.821C71.9 25.6292 72.0083 25.3736 72.2351 25.2617C75.3285 23.7065 77.7826 20.6973 78.391 17.2087L79.7933 9.19286C80.68 4.11708 77.3495 0 72.3486 0H71.3535H49.0297H48.0347C46.9726 0 45.957 0.873482 45.7662 1.95468L40.2197 34C40.0289 35.0812 40.7404 35.9547 41.8024 35.9547H42.7975H47.2364ZM54.7731 9.21416C54.8092 8.99579 55.0154 8.82003 55.2268 8.82003H67.8116C68.7603 8.82003 69.3944 9.60297 69.2243 10.567L68.3014 15.8398C68.1313 16.7985 67.2239 17.5762 66.2804 17.5762H53.6956C53.4842 17.5762 53.3398 17.4004 53.3811 17.1873L54.7731 9.21416Z" fill="#8B8B8B"/>
    <path d="M40.374 9.38469C41.2792 4.20299 37.8739 0 32.7739 0H31.7581H8.96848H7.94742C6.8632 0 5.82636 0.891708 5.63162 1.99547L0.0315797 34.0045C-0.163158 35.1083 0.563162 36 1.64738 36H2.66318H7.18952H8.20532C9.28954 36 10.3264 35.1083 10.5211 34.0045L11.6843 27.3657C11.7211 27.1427 11.9317 26.9687 12.1475 26.9687L28.0528 26.9524C33.1581 26.9524 38.0266 22.7494 38.9371 17.5677L40.374 9.38469ZM29.5897 10.7875L28.6476 16.1704C28.4739 17.1491 27.5528 17.9429 26.5844 17.9429H13.7369C13.5211 17.9429 13.3738 17.7635 13.4159 17.5406L14.8369 9.401C14.8738 9.17807 15.0843 8.99864 15.3001 8.99864H28.1476C29.116 9.00408 29.7634 9.80335 29.5897 10.7875Z" fill="#8B8B8B"/>
    <path d="M114.397 0H113.377H106.361H105.341H97.8742H96.8539H95.2738H94.2535C89.1364 0 84.2495 4.19005 83.3443 9.36441L80.3096 26.6356C79.3992 31.8046 82.8106 36 87.9277 36H88.948H92.553H93.5733H99.0148H100.035H107.051H108.072C113.189 36 118.076 31.81 118.981 26.6356L122.016 9.36441C122.926 4.19543 119.515 0 114.397 0ZM108.621 25.4092C108.506 26.0708 107.883 26.6033 107.229 26.6033H101.683H100.663H95.2214H94.2011H92.0716C91.4176 26.6033 90.9833 26.0708 91.0984 25.4092L93.725 10.4671C93.8401 9.80547 94.4628 9.27297 95.1168 9.27297H97.2463H98.2666H103.708H104.728H110.274C110.929 9.27297 111.363 9.80547 111.248 10.4671L108.621 25.4092Z" fill="#8B8B8B"/>
</svg>
