<svg width="55" height="55" viewBox="0 0 55 55" fill="none" xmlns="http://www.w3.org/2000/svg">
    <circle cx="27.5" cy="27.5" r="27.5" fill="#333333"/>
    <path d="M27.4741 41.9939C30.0447 41.9951 32.6141 42.0133 35.1848 41.9818C35.8929 41.9733 36.63 41.908 37.3002 41.707C39.5219 41.0399 40.8066 39.5289 40.9545 37.3267C41.1429 34.5227 40.799 31.7647 39.4055 29.221C38.3257 27.25 36.6452 26.0926 34.2845 26.0175C33.7762 26.0018 33.2236 26.2027 32.7507 26.4231C31.8087 26.8626 30.9463 27.4655 29.9853 27.8541C27.8054 28.7367 25.7001 28.3735 23.6921 27.2863C23.3444 27.0987 22.9928 26.9037 22.6868 26.6604C21.6652 25.8444 20.5297 25.8807 19.3436 26.1979C17.6366 26.6543 16.4227 27.6967 15.6223 29.1714C14.1581 31.87 13.7813 34.7818 14.1088 37.7528C14.3794 40.2178 16.6061 41.9055 19.3828 41.9867C19.4675 41.9891 19.551 41.9915 19.6357 41.9915C22.2493 41.9927 24.8617 41.9927 27.4741 41.9939Z" fill="#7D7D7D"/>
    <path d="M27.6872 25.9158C32.0218 25.9279 35.4649 22.6554 35.494 18.4954C35.523 14.3669 32.0673 11.0206 27.7529 11C23.4171 10.9794 19.9019 14.3185 19.9006 18.4627C19.8994 22.5864 23.3653 25.9049 27.6872 25.9158Z" fill="#7D7D7D"/>
</svg>
