<svg width="140" height="36" viewBox="0 0 140 36" fill="none" xmlns="http://www.w3.org/2000/svg">
    <path d="M27.7125 36H28.7839C34.1407 36 39.3341 31.6667 40.2593 26.4762L40.8924 23.1429C41.8664 17.9524 38.2627 13.7619 32.906 13.7619H31.8346H16.3487C15.6669 13.7619 15.2286 13.2381 15.326 12.5714L15.7643 10.3333C15.8617 9.66667 16.5435 9.14286 17.2253 9.14286H38.5062H39.5776C40.6976 9.14286 41.8177 8.2381 42.0125 7.14286L42.9864 2C43.1812 0.904762 42.402 0 41.282 0H40.2106H17.8583H16.787C11.4302 0 6.26825 4.19048 5.34299 9.38095L4.66122 13C3.68726 18.1905 7.2909 22.381 12.6477 22.381H13.719H29.2049C29.8867 22.381 30.3737 22.9048 30.2276 23.5714L29.9354 25.2381C29.7893 25.9048 29.1562 26.4286 28.4745 26.4286H5.5H4.42865C3.3086 26.4286 2.18855 27.3333 1.99376 28.4286L0.988351 34C0.79356 35.0952 1.52403 36 2.69277 36H3.76413H27.7125Z" fill="#8B8B8B"/>
    <path d="M44.2242 34C44.0294 35.0952 44.8085 36 45.9286 36H46.9999H51.7723H52.8437C54.0124 36 55.0838 35.0952 55.2786 34L55.8428 31.0476C55.8915 30.7619 56.0376 30.4762 56.2811 30.2857L61.2483 25.6667L67.8712 35.2857C68.1633 35.7143 68.699 36 69.3321 36H70.4034H79.0717H80.143C80.8248 36 81.3605 35.1905 81.0196 34.6667L69.673 18.2857C69.5756 18.1429 69.6243 17.9048 69.7704 17.7619L87.2042 1.33333C87.7886 0.809524 87.5451 0 86.8633 0H85.792H77.1724H76.1011C75.468 0 74.8836 0.238095 74.3967 0.714286L59.5925 14.6667C58.8621 15.1905 59.0082 14.3333 59.0082 14.3333L61.297 2.04762C61.4917 0.952381 60.7613 0.047619 59.5925 0.047619H58.5212H53.7488H52.6774C51.5574 0.047619 50.4373 0.952381 50.2425 2.04762L44.2242 34Z" fill="#8B8B8B"/>
    <path d="M101.779 0H97.0062H95.9349C94.7661 0 93.6948 0.904762 93.5 2L87.5001 34C87.3053 35.0952 88.0358 36 89.2045 36H90.2759H95.0483H96.1196C97.2397 36 98.3597 35.0952 98.5545 34L104.554 2C104.749 0.904762 104.019 0 102.85 0H101.779Z" fill="#8B8B8B"/>
    <path d="M119.344 0H114.571H113.5C112.38 0 111.26 0.904762 111.065 2L105.224 34C105.03 35.0952 105.76 36 106.929 36H108H112.772H113.844C114.964 36 116.084 35.0952 116.279 34L122.12 2C122.314 0.904762 121.584 0 120.415 0H119.344Z" fill="#8B8B8B"/>
    <path d="M136.929 0H132.156H131.085C129.916 0 128.845 0.904762 128.65 2L122.753 33.9524C122.558 35.0476 123.288 35.9524 124.457 35.9524H125.528H130.301H131.372C132.492 35.9524 133.612 35.0476 133.807 33.9524L139.705 2C139.899 0.904762 139.169 0 138 0H136.929Z" fill="#8B8B8B"/>
</svg>
