<svg width="87" height="24" fill="none" xmlns="http://www.w3.org/2000/svg">
    <g fill="#fff">
        <path d="M16.45 23.56h.67a7.5 7.5 0 0 0 7.12-5.96l.4-2.12a4.87 4.87 0 0 0-4.98-5.96H9.37c-.43 0-.7-.34-.64-.76L9 7.34c.06-.43.49-.76.91-.76h13.91c.7 0 1.39-.57 1.51-1.27l.6-3.27c.13-.7-.36-1.27-1.05-1.27H9.64a7.5 7.5 0 0 0-7.12 5.96l-.43 2.3A4.87 4.87 0 0 0 7.06 15h10.3c.43 0 .73.33.64.75l-.18 1.06a.97.97 0 0 1-.91.76H2.58c-.7 0-1.4.57-1.52 1.27l-.6 3.45c-.12.7.33 1.27 1.06 1.27h14.93ZM26.72 22.3c-.12.69.37 1.26 1.06 1.26H32.1c.72 0 1.39-.57 1.51-1.27l.33-1.82a.79.79 0 0 1 .28-.48l3.09-2.94 4.12 6.12c.18.27.51.45.9.45h6.73c.42 0 .76-.51.55-.85l-7.06-10.4c-.06-.1-.03-.25.06-.34L53.44 1.59c.37-.34.21-.85-.21-.85h-6.69c-.4 0-.76.15-1.06.45l-9.21 8.87c-.46.33-.37-.21-.37-.21l1.43-7.81c.12-.7-.34-1.27-1.06-1.27H31.96c-.7 0-1.39.57-1.51 1.27l-3.73 20.25ZM62.5.77h-3.64c-.72 0-1.39.57-1.51 1.27l-3.67 20.28c-.12.7.34 1.27 1.06 1.27H59.05c.7 0 1.39-.57 1.51-1.27l3.67-20.28c.12-.7-.34-1.27-1.06-1.27h-.67ZM73.44.77H69.8c-.7 0-1.4.57-1.51 1.27l-3.67 20.28c-.12.7.33 1.27 1.06 1.27h4.3c.7 0 1.4-.57 1.52-1.27l3.66-20.28c.12-.7-.33-1.27-1.06-1.27h-.66ZM84.37.77h-3.64c-.72 0-1.39.57-1.51 1.27l-3.67 20.28c-.12.7.34 1.27 1.06 1.27H80.92c.7 0 1.39-.57 1.51-1.27L86.1 2.04c.12-.7-.34-1.27-1.06-1.27h-.67Z"/>
    </g>
</svg>
